<?xml version="1.0" encoding="UTF-8"?>
<svg id="Layer_1" data-name="Layer 1" xmlns="http://www.w3.org/2000/svg" version="1.1" xmlns:xlink="http://www.w3.org/1999/xlink" viewBox="0 0 2007.3 2028">
  <defs>
    <style>
      .cls-1 {
        fill: #000;
      }

      .cls-1, .cls-2, .cls-3, .cls-4, .cls-5, .cls-6, .cls-7, .cls-8 {
        stroke-width: 0px;
      }

      .cls-9, .cls-8 {
        isolation: isolate;
      }

      .cls-2, .cls-10 {
        fill: none;
      }

      .cls-3 {
        fill: #445666;
        opacity: .8;
      }

      .cls-4, .cls-8 {
        fill: #f1b69a;
      }

      .cls-5 {
        fill: #150a08;
      }

      .cls-6 {
        fill: #5b4850;
      }

      .cls-11 {
        clip-path: url(#clippath);
      }

      .cls-7 {
        fill: #fff;
      }

      .cls-10 {
        stroke: #e07e61;
        stroke-linecap: round;
        stroke-miterlimit: 10;
        stroke-width: .4px;
      }

      .cls-8 {
        mix-blend-mode: multiply;
        opacity: .5;
      }
    </style>
    <clipPath id="clippath">
      <circle class="cls-2" cx="1003.6" cy="1003.6" r="1003.5"/>
    </clipPath>
  </defs>
  <g class="cls-9">
    <g id="Layer_1-2" data-name="Layer 1">
      <g>
        <circle class="cls-3" cx="1003.6" cy="1003.6" r="1003.5"/>
        <g class="cls-11">
          <g>
            <path class="cls-1" d="M1401.6,819.4c8.1-111.9,93.2-423.1-90.5-401.9-23.8-162.1-175.6-244.1-321.9-236.6-396.8,20.3-458.2,382.7-396,638.5,100.7,268.2,618.1,58.5,808.3.4,0-.1,0-.3,0-.4h0Z"/>
            <g>
              <path class="cls-6" d="M1877.8,2028H129.5s53-293.2,173.2-462c120.2-168.9,566.1-230.5,566.1-230.5l134.9,20.8,134.8-20.8s446.1,61.6,566.2,230.5c120.2,168.8,173,462,173,462h0Z"/>
              <path class="cls-7" d="M765.2,1348.1c118.8-27.3,219.9-19.4,236.1-17.8h.1c16.2-1.6,117.4-9.6,236.1,17.8,11.3,106.3-32.6,240.3-234,240.9-203.9.6-250-133.2-238.4-240.9h0Z"/>
              <g>
                <path class="cls-4" d="M1000.7,1484.4h0c-65.4,0-118.4-53-118.4-118.4v-226.2h236.9v226.2c0,65.4-53,118.4-118.4,118.4h0Z"/>
                <path class="cls-5" d="M1119.2,1126.5v138.9s-39.8,69.2-118.4,69.2-118.4-59.9-118.4-59.9v-148.1h236.8Z"/>
                <g>
                  <path class="cls-4" d="M669.4,870.4c-64-97.3-138.3-34.8-138.3,33.7,0,99.2,107.6,184.6,169,113.4,61.5-71.2-30.7-147.1-30.7-147.1h0Z"/>
                  <path class="cls-10" d="M655.4,915.4c-39.8-74.5-94.9-5-73.9,22.6"/>
                  <path class="cls-4" d="M1309.1,870.4c64-97.3,138.3-34.8,138.3,33.7,0,99.2-107.6,184.6-169.1,113.4-61.5-71.2,30.7-147.1,30.7-147.1h0Z"/>
                  <path class="cls-10" d="M1323.1,915.4c39.8-74.5,94.9-5,73.9,22.6"/>
                </g>
                <path class="cls-4" d="M989,1252.5c-253,0-402.7-276.6-343.5-560.5,48.7-234,638.9-233.9,687.6,0,59.2,283.9-90.9,560.6-344.1,560.5h0Z"/>
                <path class="cls-1" d="M1362.4,785s-3.3,254.8-98.4,374c-95,119.2-263.3,126.9-263.3,126.9,0,0-188.5-7.7-283.5-126.9-95-119.2-98.4-374-98.4-374l13.2-25.6c9.6,68.3,54.3,245.3,108,284.5,88-29.4,153.8-32.7,254.3-32.7s175.9,11.5,250.5,20.9c43.2-38,95.6-210.4,104.3-272.7l13.2,25.6h0Z"/>
                <path class="cls-8" d="M955.4,968.3c26,12.4,84.7-15.1,85.9,0,1.2,15.1-31.1,28.5-43,28.5s-43-28.5-43-28.5h0Z"/>
                <path class="cls-10" d="M956.2,892c-36.9,79.8,18.3,95.3,33.1,97.2"/>
                <path class="cls-7" d="M897.2,1043.8c96.9,10.4,161.6-.2,207.6,1.3,0,0-58,81.9-126.2,65.7-68.2-16.3-81.3-67-81.3-67h0Z"/>
                <path class="cls-1" d="M889.2,674.4c-15.8-35.3-108.5-19.2-121.6,6-13.1,25.2,30.3,32.2,62.4,30.6s69.2-14.1,59.1-36.6h0Z"/>
                <path class="cls-1" d="M1089.3,674.4c15.8-35.3,108.5-19.2,121.6,6,13.1,25.2-30.3,32.2-62.4,30.6-32.2-1.6-69.2-14.1-59.1-36.6h0Z"/>
                <path class="cls-8" d="M964.2,1134.6c35.4,0,86.2-18.3,94.1,0,7.9,18.3-35.4,55-62.2,52.4-26.8-2.6-72.3-52.5-31.9-52.4h0Z"/>
                <path class="cls-5" d="M822.2,810.5c0,14.1,11.4,25.5,25.5,25.5s25.5-11.4,25.5-25.5-11.4-25.5-25.5-25.5-25.5,11.4-25.5,25.5Z"/>
                <circle class="cls-5" cx="1130.8" cy="810.5" r="25.5"/>
              </g>
            </g>
            <path class="cls-1" d="M795.4,521l59-14.3s-76.8,123.2,86.8,146.9,334-87.1,198.1-143.6l49.4-3.3-118.8-91.1-274.4,105.4h0Z"/>
          </g>
        </g>
      </g>
    </g>
  </g>
</svg>